/* XPM */
static char *kikoplay[] = {
/* columns rows colors chars-per-pixel */
"110 128 2 1 ",
"  c black",
". c None",
/* pixels */
".   ..........................................................................................................",
"     .........................................................................................................",
"     ....................................................................................   ..................",
"      ..................................................................................     .................",
"      .................................................................................      .................",
"       ................................................................................      .................",
"       ...............................................................................       .................",
"        ..............................................................................       .................",
"         ............................................................................        .................",
"         ...........................................................................         .................",
"          ..........................................................................         .................",
"          .........................................................................          .................",
"           ........................................................................          .................",
"           .......................................................................           .................",
"     .      .....................................................................            .................",
"     .      .....................................................................      .     .................",
"     ..      ...................................................................      ..     .................",
"     ..      ...................................................................      ..     .................",
"     ...      .................................................................      ...     .................",
"     ...      ................................................................      ....     .................",
"     ....      ...............................................................      ....     .................",
"     ....      ..............................................................      .....     .................",
"     .....      .............................................................      .....     .................",
"     ......                                                                       ......     .................",
"     ......                                                                      .......     .................",
"     .......                                                                     .......     .................",
"     .......                                                                    ........     .................",
"     ........                                                                  .........     .................",
"     ...................................................................................     .................",
"     ...................................................................................     .................",
"     ...................................................................................     .................",
"     ...................................................................................     .................",
"     ...................................................................................     .................",
"     ...................................................................................     .................",
"     ...................................................................................     .................",
"     ...................................................................................     .................",
"     ...................................................................................     .................",
"     ...................................................................................     .................",
"     ...................................................................................     .................",
"     ...................................................................................     .................",
"     ...................................................................................     .................",
"     ...................................................................................     .................",
"     ...................................................................................     .................",
"     ...................................................................................     .................",
"     ...................................................................................     .................",
"     ...................    .....................................    ...................     .................",
"     .................         ...............................         .................     .................",
"     ................           .............................            ...............     .................",
"     ...............             ...........................             ...............     .................",
"     ..............               .........................               ..............     .................",
"     .............       ...       ........................      ...       .............     .................",
"     .............      .....      .......................      .....      .............     .................",
"     .............     .......     .......................     .......     .............     .................",
"     .............     .......     .......................     .......     .............     .................",
"     .............     .......     .......................     .......     .............     .................",
"     .............     .......     .......................     .......     .............     .................",
"     .............      .....      .......................      .....      .............     .................",
"     ..............               .........................                .............     .................",
"     ..............               .........................               ..............     .................",
"     ...............             ...........................             ...............     .................",
"     ................           .............................           ................     .................",
"     .................         ................................        .................     .................",
"     ..................... ....................................... .....................     ............    .",
"     ...................................................................................     ...........      ",
"     ...................................................................................     ..........       ",
"     ...................................................................................     .........       .",
"     ...................................................................................     ........       ..",
"     ...................................................................................     .......       ...",
"     ...................................             ...................................     .......      ....",
"     ...................................             ...................................     ......      .....",
"     ...................................             ...................................     .....      ......",
"     ...................................             ...................................     .....      ......",
"     ....................................           ....................................     .....     .......",
"     .......................................     .......................................     ....      .......",
"     .......................................     .......................................     ....     ........",
"     .......................................     .......................................     ...      ........",
"     .......................................     .......................................     ...      ........",
"     .......................................    ........................................     ...     .........",
"     ...................................................................................     ...     .........",
"     ...................................................................................     ...     .........",
"     ...................................................................................     ..      .........",
"     ...................................................................................     ..     ..........",
"     ...................................................................................     ..     ..........",
"     ...................................................................................     ..     ..........",
"     ...................................................................................     ..     ..........",
"     ...................................................................................     ..     ..........",
"     ...................................................................................     ..     ..........",
"     ...................................................................................     ..     ..........",
"     ...................................................................................     ..     ..........",
"     ...................................................................................     ..     ..........",
"     ...................................................................................     ..      .........",
"     ...................................................................................     ..      .........",
"     ...................................................................................     ...     .........",
"     ...................................................................................     ...     .........",
"     ...................................................................................     ...     .........",
"     ...................................................................................     ...      ........",
"     ...................................................................................     ...      ........",
"     ...................................................................................     ....     ........",
"     ...................................................................................     ....      .......",
"     ...................................................................................     ....      .......",
"     ...................................................................................     .....     .......",
"     ...................................................................................     .....      ......",
"     ...................................................................................     ......     ......",
"     ...................................................................................     ......      .....",
"     ...................................................................................     .......     .....",
"     ...................................................................................     .......      ....",
"     ...................................................................................     ........      ...",
"     ...................................................................................     ........      ...",
"     ...................................................................................     .........      ..",
"     ...................................................................................     .........      ..",
"     ...................................................................................     ..........     ..",
"     ...................................................................................     ..........      .",
"     ...................................................................................     ...........     .",
"     ...................................................................................     ...........     .",
"     ...................................................................................     ...........      ",
"     ...................................................................................     ...........      ",
"     ...................................................................................     ............     ",
"     ...................................................................................     ............     ",
"     ...................................................................................     ............     ",
"      .................................................................................      ...........      ",
".      ................................................................................     ............     .",
".       ..............................................................................      ............     .",
"..        .........................................................................         ..........       .",
"..                                                                                                          ..",
"...                                                                                                         ..",
"....                                                                                                       ...",
"......                                                                                                    ....",
".........                                                                                               ......"
};
