<?xml version="1.0" standalone="no"?><!DOCTYPE svg PUBLIC "-//W3C//DTD SVG 1.1//EN" "http://www.w3.org/Graphics/SVG/1.1/DTD/svg11.dtd"><svg t="1590640618301" class="icon" viewBox="0 0 1024 1024" version="1.1" xmlns="http://www.w3.org/2000/svg" p-id="3058" xmlns:xlink="http://www.w3.org/1999/xlink" width="64" height="64"><defs><style type="text/css"></style></defs><path d="M107.619578 893.876384h37.287231V139.811256h426.140517V321.425593c0 2.851954 0.952698 5.477758 2.542916 7.601119 5.885034 12.056594 21.355377 20.662599 39.512922 20.662599h165.365258v115.532293c0 18.686594 15.33629 33.833573 34.254152 33.833573 18.915815 0 34.253128-15.146978 34.253128-33.833573v-175.282119c0-5.979178-1.586125-11.588943-4.341888-16.46295a18.605753 18.605753 0 0 0-1.252527-2.036379 34.095539 34.095539 0 0 0-7.813966-8.30413L656.149563 84.733846c-5.16258-10.467399-15.82236-17.674545-28.175713-17.674544H108.224352c-7.841595 0-14.998599 2.917446-20.51115 7.712659C78.488097 81.750909 72.463893 93.199659 72.463893 106.150622v812.95026c0 11.545964 4.789073 21.897729 12.363586 28.957518-5.664-5.752004-9.1678-13.625322-9.1678-22.320354 0-17.597797 14.308891-31.861662 31.959899-31.861662z m514.567475-743.730759l135.886877 136.642077H622.187053v-136.642077z" fill="#957af7" p-id="3059"></path><path d="M445.336206 893.876384H107.620601c-17.651009 0-31.960922 14.263865-31.960922 31.862685 0 8.694009 3.5038 16.567327 9.1678 22.320355 5.799076 5.881964 13.864776 9.540284 22.793122 9.540283H445.336206c17.652032 0 31.960922-14.263865 31.960923-31.860638 0.001023-17.59882-14.308891-31.862685-31.960923-31.862685zM239.726362 318.237995h227.981364c14.121626 0 25.572422-11.412934 25.572422-25.491581s-11.449773-25.492604-25.572422-25.492604H239.726362c-14.121626 0-25.569352 11.413957-25.569352 25.492604s11.446703 25.491581 25.569352 25.491581zM471.968773 396.563898H243.987409c-14.122649 0-25.571399 11.411911-25.571399 25.49158s11.44875 25.491581 25.571399 25.491581h227.981364c14.123672 0 25.571399-11.411911 25.571399-25.491581s-11.44875-25.491581-25.571399-25.49158zM467.707726 512.62524H239.726362c-14.121626 0-25.569352 11.412934-25.569352 25.491581 0 14.08274 11.447726 25.496697 25.569352 25.496697h227.981364c14.121626 0 25.572422-11.413957 25.572422-25.496697-0.001023-14.078647-11.450796-25.491581-25.572422-25.491581zM924.74288 651.563616c-27.16571-7.965415-135.032416-17.524119-135.032416-17.524119l-74.308403-138.600685c-12.785188-11.149944-27.966958 0-27.966958 0l-77.504188 131.430379-115.057479 19.120476c-47.940872 11.148921-32.759101 48.588625-32.759102 48.588625l99.875709 101.160981-21.572318 142.582369c2.397606 28.675086 31.16172 22.829961 31.16172 22.829961 64.721047-30.540573 133.673465-63.72537 133.673466-63.72537l110.825084 63.72537c35.957957 4.510734 44.745087-22.030759 44.745087-22.030759 0.800225-10.356882-18.698874-148.95552-18.698874-148.95552l92.210121-93.994768c35.530215-31.695886-9.331529-44.282552-9.591449-44.60694z" fill="#957af7" p-id="3060"></path></svg>