<?xml version="1.0" encoding="utf-8"?>
<!-- Generator: Adobe Illustrator 16.0.0, SVG Export Plug-In . SVG Version: 6.00 Build 0)  -->
<!DOCTYPE svg PUBLIC "-//W3C//DTD SVG 1.1//EN" "http://www.w3.org/Graphics/SVG/1.1/DTD/svg11.dtd">
<svg version="1.1" id="图层_1" xmlns="http://www.w3.org/2000/svg" xmlns:xlink="http://www.w3.org/1999/xlink" x="0px" y="0px"
	 width="64px" height="64px" viewBox="0 0 64 64" enable-background="new 0 0 64 64" xml:space="preserve">
<path d="M32.056,32.056l-0.112-0.112L32.056,32.056z"/>
<path d="M31.931,32.069l0.138-0.138C32.019,31.975,31.975,32.019,31.931,32.069z"/>
<path fill="#DBDBDB" d="M40.506,31.994c0-0.519-0.193-0.987-0.519-1.344l-0.138-0.137l-1.344-1.344L26.9,17.563
	c-0.775-0.775-2.05-0.775-2.831,0c-0.775,0.775-0.775,2.05,0,2.831L35.682,32L24.075,43.612c-0.775,0.775-0.775,2.05,0,2.831
	c0.775,0.775,2.05,0.775,2.825-0.006l11.606-11.606l1.363-1.362l0.112-0.112C40.313,33,40.513,32.519,40.506,31.994z"/>
<path fill="#FFFFFF" d="M31.944,31.944l0.112,0.112L31.944,31.944z"/>
<path fill="#FFFFFF" d="M32.069,31.931l-0.138,0.138C31.981,32.025,32.025,31.981,32.069,31.931z"/>
</svg>
