<?xml version="1.0" encoding="utf-8"?>
<!-- Generator: Adobe Illustrator 16.0.0, SVG Export Plug-In . SVG Version: 6.00 Build 0)  -->
<!DOCTYPE svg PUBLIC "-//W3C//DTD SVG 1.1//EN" "http://www.w3.org/Graphics/SVG/1.1/DTD/svg11.dtd">
<svg version="1.1" id="图层_1" xmlns="http://www.w3.org/2000/svg" xmlns:xlink="http://www.w3.org/1999/xlink" x="0px" y="0px"
	 width="64px" height="64px" viewBox="0 0 64 64" enable-background="new 0 0 64 64" xml:space="preserve">
<path d="M32.056,32.056l-0.112-0.112L32.056,32.056z"/>
<path d="M31.931,32.069l0.138-0.138C32.019,31.975,31.975,32.019,31.931,32.069z"/>
<path fill="#DBDBDB" d="M32.006,40.512c0.518,0,0.987-0.193,1.343-0.519l0.138-0.138l1.344-1.344l11.606-11.606
	c0.774-0.775,0.774-2.05,0-2.831c-0.775-0.775-2.05-0.775-2.831,0L32,35.688L20.388,24.081c-0.775-0.775-2.05-0.775-2.831,0
	c-0.775,0.775-0.775,2.05,0.006,2.825l11.606,11.606l1.362,1.363l0.112,0.112C31,40.318,31.481,40.519,32.006,40.512z"/>
<path fill="#FFFFFF" d="M31.944,31.944l0.112,0.112L31.944,31.944z"/>
<path fill="#FFFFFF" d="M32.069,31.931l-0.138,0.138C31.981,32.025,32.025,31.981,32.069,31.931z"/>
</svg>
