<?xml version="1.0" standalone="no"?><!DOCTYPE svg PUBLIC "-//W3C//DTD SVG 1.1//EN" "http://www.w3.org/Graphics/SVG/1.1/DTD/svg11.dtd"><svg t="1590648657576" class="icon" viewBox="0 0 1024 1024" version="1.1" xmlns="http://www.w3.org/2000/svg" p-id="8479" xmlns:xlink="http://www.w3.org/1999/xlink" width="64" height="64"><defs><style type="text/css"></style></defs><path d="M991.826741 188.231035c-22.333658-22.343891-58.533115-22.343891-80.866772 0L382.080533 717.108424 117.594767 435.990862c-22.316262-22.334681-58.516742-22.334681-80.851423 0-22.315238 22.333658-22.315238 58.515718 0 80.849376l302.461683 321.538157c11.480472 11.463076 26.627451 17.016559 41.673122 16.692171 15.041578 0.324388 30.187533-5.229095 41.670052-16.692171l569.279564-569.299007C1014.143003 246.74573 1014.143003 210.564693 991.826741 188.231035z" p-id="8480" fill="#ffffff"></path><path d="M991.826741 188.231035c-22.333658-22.343891-58.533115-22.343891-80.866772 0L382.080533 717.108424 117.594767 435.990862c-22.316262-22.334681-58.516742-22.334681-80.851423 0-22.315238 22.333658-22.315238 58.515718 0 80.849376l302.461683 321.538157c11.480472 11.463076 26.627451 17.016559 41.673122 16.692171 15.041578 0.324388 30.187533-5.229095 41.670052-16.692171l569.279564-569.299007C1014.143003 246.74573 1014.143003 210.564693 991.826741 188.231035z" p-id="8481" fill="#ffffff"></path></svg>