<?xml version="1.0" standalone="no"?><!DOCTYPE svg PUBLIC "-//W3C//DTD SVG 1.1//EN" "http://www.w3.org/Graphics/SVG/1.1/DTD/svg11.dtd"><svg t="1737867966080" class="icon" viewBox="0 0 1024 1024" version="1.1" xmlns="http://www.w3.org/2000/svg" p-id="6315" xmlns:xlink="http://www.w3.org/1999/xlink" width="48" height="48"><path d="M512.544 957.263c-242.074 0-438.304-196.904-438.304-439.804S270.469 77.66 512.544 77.66c242.064 0 438.304 196.9 438.304 439.799S754.608 957.263 512.544 957.263zM510.174 146.07c-204.309 0-369.909 166.177-369.909 371.179 0 204.995 165.6 371.179 369.909 371.179 204.275 0 369.899-166.185 369.899-371.179C880.073 312.247 714.448 146.07 510.174 146.07zM713.148 453.904 504.529 663.763l0-0.02c-6.31 6.345-14.987 10.245-24.625 10.245-9.6 0-18.315-3.94-24.605-10.245l-138.605-139.59c-6.287-6.3-10.167-15.005-10.167-24.62 0-19.3 15.592-34.915 34.77-34.915 9.622 0 18.32 3.92 24.627 10.25l113.98 114.815 184.02-185.092c6.295-6.325 15.025-10.222 24.62-10.222 19.185 0 34.755 15.615 34.755 34.87C723.298 438.876 719.418 447.594 713.148 453.904z" fill="#87cf10" p-id="6316"></path></svg>