<?xml version="1.0" standalone="no"?><!DOCTYPE svg PUBLIC "-//W3C//DTD SVG 1.1//EN" "http://www.w3.org/Graphics/SVG/1.1/DTD/svg11.dtd"><svg t="1737868730266" class="icon" viewBox="0 0 1025 1024" version="1.1" xmlns="http://www.w3.org/2000/svg" p-id="5029" xmlns:xlink="http://www.w3.org/1999/xlink" width="48.046875" height="48"><path d="M512.512 32.48c-85.774 0-166.315 22.488-236.01 61.847C130.778 176.645 32.404 332.857 32.404 511.989l0-0.001c0 264.881 214.939 479.555 480.108 479.532 265.17 0 480.107-214.675 480.084-479.556C992.596 247.154 777.633 32.48 512.512 32.48zM512.512 931.596c-232.027 0-420.087-187.868-420.11-419.582 0-231.715 188.083-419.558 420.11-419.558 232.002 0 420.062 187.844 420.062 419.558C932.574 743.753 744.49 931.596 512.512 931.596z" fill="#87CF11" p-id="5030"></path><path d="M668.49 530.01 545.293 663.495 545.293 273.766c0-18.725-13.824-32.475-32.5-32.475-18.7 0-32.524 13.727-32.524 32.475l0 389.705L359.51 529.376c-22.479-22.43-60.782 15.823-38.327 38.278l191.61 193.243 191.586-193.243C727.102 544.906 690.067 508.408 668.49 530.01z" fill="#87CF11" p-id="5031"></path></svg>