<?xml version="1.0" standalone="no"?><!DOCTYPE svg PUBLIC "-//W3C//DTD SVG 1.1//EN" "http://www.w3.org/Graphics/SVG/1.1/DTD/svg11.dtd"><svg t="1739207372311" class="icon" viewBox="0 0 1024 1024" version="1.1" xmlns="http://www.w3.org/2000/svg" p-id="5122" xmlns:xlink="http://www.w3.org/1999/xlink" width="64" height="64"><path d="M936.0512 992H87.9488A55.968 55.968 0 0 1 32 936.0512V87.9488A55.968 55.968 0 0 1 87.9488 32h848.1024A55.968 55.968 0 0 1 992 87.9488v848.1024A55.968 55.968 0 0 1 936.0512 992z m7.2768-82.2336V114.2912c0-18.5472-15.072-33.6-33.6-33.6H114.2528c-18.528 0-33.6 15.0528-33.6 33.6v795.4752c0 18.5472 15.072 33.6192 33.6 33.6192h795.4944a33.6192 33.6192 0 0 0 33.5616-33.6z" fill="#8a8a8a" p-id="5123"></path><path d="M968.3264 97.5872L92.4416 973.4528a24.384 24.384 0 0 1-34.4256-34.4256L933.8816 63.1424a24.384 24.384 0 0 1 34.4448 34.4448z" fill="#8a8a8a" p-id="5124"></path><path d="M933.8816 973.4528L58.016 97.5872a24.384 24.384 0 0 1 34.4256-34.4448l875.8848 875.8848a24.384 24.384 0 0 1-34.4448 34.4256z" fill="#8a8a8a" p-id="5125"></path></svg>