<?xml version="1.0" encoding="utf-8"?>
<!-- Generator: Adobe Illustrator 16.0.0, SVG Export Plug-In . SVG Version: 6.00 Build 0)  -->
<!DOCTYPE svg PUBLIC "-//W3C//DTD SVG 1.1//EN" "http://www.w3.org/Graphics/SVG/1.1/DTD/svg11.dtd">
<svg version="1.1" id="图层_1" xmlns="http://www.w3.org/2000/svg" xmlns:xlink="http://www.w3.org/1999/xlink" x="0px" y="0px"
	 width="64px" height="64px" viewBox="0 0 64 64" enable-background="new 0 0 64 64" xml:space="preserve">
<path fill="none" d="M42.848,51.328c-0.447,0-0.928-0.16-1.375-0.352l-9.409-4.705l-9.472,4.705
	c-0.928,0.512-2.176,0.447-3.04-0.225c-0.864-0.641-1.376-1.824-1.152-2.912l1.952-10.145l-7.456-6.911
	c-0.8-0.8-1.088-2.016-0.8-3.04c0.352-1.088,1.216-1.888,2.4-2.016l10.368-1.888l4.608-9.44c0.512-1.024,1.536-1.664,2.592-1.664
	c1.088,0,2.176,0.64,2.592,1.664l4.64,9.408l10.368,1.824c1.088,0.16,2.016,0.928,2.304,2.016c0.353,1.088,0.064,2.24-0.735,3.04
	l-7.457,7.041l1.889,10.144c0.225,1.151-0.288,2.239-1.152,2.912C44.096,51.104,43.52,51.328,42.848,51.328z"/>
<path fill="#FAFAFA" fill-opacity="0.8" d="M42.848,52.607c-0.736,0-1.439-0.256-1.888-0.447l-0.063-0.032l-8.833-4.416L23.2,52.128
	c-1.408,0.769-3.168,0.608-4.416-0.353c-1.28-0.959-1.952-2.623-1.632-4.191l1.824-9.439L12,31.68
	c-1.12-1.12-1.536-2.784-1.12-4.288V27.36c0.512-1.6,1.824-2.688,3.424-2.88L24,22.688l4.32-8.864
	c0.736-1.44,2.208-2.368,3.744-2.368c1.631,0,3.136,0.96,3.745,2.4l4.319,8.8l9.728,1.696c1.601,0.256,2.912,1.376,3.328,2.912
	c0.48,1.536,0.064,3.168-1.056,4.32l-0.032,0.032l-6.943,6.56l1.76,9.473c0.288,1.535-0.32,3.136-1.633,4.16
	C44.607,52.32,43.744,52.607,42.848,52.607L42.848,52.607z M42.016,49.824c0.385,0.16,0.641,0.224,0.832,0.224
	c0.448,0,0.736-0.159,0.896-0.288c0.544-0.416,0.8-1.056,0.672-1.664L42.4,37.248l7.936-7.488c0.448-0.479,0.607-1.12,0.416-1.728
	l-0.031-0.064c-0.16-0.576-0.641-0.992-1.248-1.088h-0.033l-11.008-1.92l-4.959-10.08c-0.193-0.512-0.801-0.864-1.409-0.864
	c-0.576,0-1.152,0.384-1.44,0.96l-4.896,10.016l-11.104,2.016c-0.608,0.064-1.088,0.48-1.312,1.12
	c-0.16,0.608,0.032,1.312,0.48,1.76l7.968,7.392l-2.08,10.848c-0.128,0.576,0.16,1.28,0.672,1.632
	c0.48,0.352,1.152,0.416,1.664,0.129l0.064-0.033l10.048-4.991L42.016,49.824z"/>
</svg>
