<?xml version="1.0" encoding="utf-8"?>
<!-- Generator: Adobe Illustrator 16.0.0, SVG Export Plug-In . SVG Version: 6.00 Build 0)  -->
<!DOCTYPE svg PUBLIC "-//W3C//DTD SVG 1.1//EN" "http://www.w3.org/Graphics/SVG/1.1/DTD/svg11.dtd">
<svg version="1.1" id="图层_1" xmlns="http://www.w3.org/2000/svg" xmlns:xlink="http://www.w3.org/1999/xlink" x="0px" y="0px"
	 width="64px" height="64px" viewBox="0 0 64 64" enable-background="new 0 0 64 64" xml:space="preserve">
<path fill="#957AF7" d="M32.987,29.631H18.769c-1.106,0-2-0.894-2-2c0-1.106,0.894-2,2-2h14.219c1.106,0,2,0.894,2,2
	C34.987,28.737,34.088,29.631,32.987,29.631z M44.006,41.818H18.769c-1.106,0-2-0.894-2-2c0-1.105,0.894-2,2-2h25.237
	c1.106,0,2,0.895,2,2C46.006,40.925,45.112,41.818,44.006,41.818z"/>
<path fill="#957AF7" stroke="#957AF7" stroke-miterlimit="10" d="M53.058,58.063h-42.24c-3.174,0-5.76-2.693-5.76-6v-40
	c0-3.306,2.586-6,5.76-6h19.446c1.596,0,3.132,0.7,4.218,1.919l4.854,5.443c0.36,0.406,0.877,0.638,1.404,0.638h12.318
	c3.174,0,5.76,2.694,5.76,6v32C58.817,55.369,56.231,58.063,53.058,58.063z M10.817,10.063c-1.056,0-1.92,0.9-1.92,2v40
	c0,1.1,0.864,2,1.92,2h42.24c1.056,0,1.92-0.9,1.92-2v-32c0-1.1-0.864-2-1.92-2H40.745c-1.596,0-3.132-0.7-4.218-1.919L31.674,10.7
	c-0.36-0.406-0.876-0.638-1.404-0.638H10.817z"/>
</svg>
