<?xml version="1.0" encoding="utf-8"?>
<!-- Generator: Adobe Illustrator 27.3.1, SVG Export Plug-In . SVG Version: 6.00 Build 0)  -->
<svg version="1.1" id="图层_1" xmlns="http://www.w3.org/2000/svg" xmlns:xlink="http://www.w3.org/1999/xlink" x="0px" y="0px"
	 viewBox="0 0 64 64" style="enable-background:new 0 0 64 64;" xml:space="preserve">
<style type="text/css">
	.st0{fill:#F4F4F4;}
	.st1{fill:none;stroke:#F3F3F3;stroke-width:4;stroke-miterlimit:10;}
</style>
<path class="st0" d="M8.3,29c1-1,2.7-1,3.7,0c0,0,0,0,0,0l16,16c1,1,1.1,2.6,0.1,3.7s-2.6,1.1-3.7,0.1c0,0,0,0-0.1-0.1l-16-16
	C7.3,31.7,7.3,30,8.3,29L8.3,29C8.3,29,8.3,29,8.3,29z"/>
<path class="st0" d="M57.5,15.6c1,1,1,2.7,0,3.7L28,48.8c-1,1-2.6,1.1-3.7,0.1c-1-1-1.1-2.6-0.1-3.7c0,0,0,0,0.1-0.1l29.5-29.5
	C54.8,14.6,56.5,14.6,57.5,15.6L57.5,15.6z"/>
<path class="st1" d="M56.4,62H7.6C4.5,62,2,59.5,2,56.4V7.6C2,4.5,4.5,2,7.6,2h48.7C59.5,2,62,4.5,62,7.6v48.7
	C62,59.5,59.5,62,56.4,62z"/>
</svg>
