<?xml version="1.0" encoding="utf-8"?>
<!-- Generator: Adobe Illustrator 16.0.0, SVG Export Plug-In . SVG Version: 6.00 Build 0)  -->
<!DOCTYPE svg PUBLIC "-//W3C//DTD SVG 1.1//EN" "http://www.w3.org/Graphics/SVG/1.1/DTD/svg11.dtd">
<svg version="1.1" id="图层_1" xmlns="http://www.w3.org/2000/svg" xmlns:xlink="http://www.w3.org/1999/xlink" x="0px" y="0px"
	 width="64px" height="64px" viewBox="0 0 64 64" enable-background="new 0 0 64 64" xml:space="preserve">
<path fill="#E8E8E8" d="M60,4v56H4V4H60 M64,0H0v64h64V0z"/>
<path fill="#F4F4F4" d="M8.292,29.014c1.017-1.018,2.666-1.018,3.683-0.001c0,0,0,0,0.001,0.001L28.01,45.047
	c1.034,0.999,1.063,2.647,0.064,3.682c-0.999,1.035-2.648,1.064-3.683,0.064c-0.021-0.021-0.043-0.042-0.064-0.064L8.291,32.697
	c-1.017-1.017-1.018-2.666,0-3.683c0,0,0,0,0,0H8.292z"/>
<path fill="#F4F4F4" d="M57.483,15.61c1.017,1.017,1.017,2.665,0,3.682L28.022,48.754c-0.999,1.034-2.647,1.063-3.682,0.063
	c-1.034-0.999-1.063-2.647-0.064-3.682c0.021-0.021,0.042-0.043,0.064-0.064L53.8,15.608c1.017-1.017,2.665-1.017,3.683,0
	L57.483,15.61z"/>
</svg>
