<?xml version="1.0" standalone="no"?><!DOCTYPE svg PUBLIC "-//W3C//DTD SVG 1.1//EN" "http://www.w3.org/Graphics/SVG/1.1/DTD/svg11.dtd"><svg t="1778988756750" class="icon" viewBox="0 0 1024 1024" version="1.1" xmlns="http://www.w3.org/2000/svg" p-id="10474" width="64" height="64" xmlns:xlink="http://www.w3.org/1999/xlink"><path d="M511.867 87c47.178 0 90.321 24.895 114.925 65.945l342.794 571.238c25.539 42.56 26.884 95.979 3.569 139.784-23.567 44.422-68.98 72.27-118.495 72.27H169.073c-49.516 0-94.928-27.848-118.469-72.221-23.341-43.854-21.995-97.273 3.543-139.833L396.93 152.964C421.545 111.894 464.689 87 511.867 87z m0 81.92c-18.139 0-34.731 9.574-44.683 26.177L124.391 766.334c-10.737 17.892-11.311 40.706-1.446 59.24 9.483 17.875 27.205 28.743 46.128 28.743H854.66c18.923 0 36.645-10.868 46.154-28.79 9.84-18.487 9.265-41.3-1.471-59.192L556.538 195.079c-9.94-16.585-26.532-26.159-44.671-26.159z m0 484.948c30.169 0 54.625 25.473 54.625 56.896 0 31.422-24.456 56.896-54.625 56.896s-54.625-25.474-54.625-56.896c0-31.423 24.456-56.896 54.625-56.896z m0-289.545c22.618 0 40.969 19.113 40.969 42.672v161.519c0 23.559-18.35 42.672-40.97 42.672-22.618 0-40.968-19.113-40.968-42.671v-161.52c0-23.559 18.35-42.672 40.969-42.672z" fill="#f6f03b" p-id="10475"></path></svg>