<?xml version="1.0" standalone="no"?><!DOCTYPE svg PUBLIC "-//W3C//DTD SVG 1.1//EN" "http://www.w3.org/Graphics/SVG/1.1/DTD/svg11.dtd"><svg t="1737868166385" class="icon" viewBox="0 0 1024 1024" version="1.1" xmlns="http://www.w3.org/2000/svg" p-id="7422" xmlns:xlink="http://www.w3.org/1999/xlink" width="48" height="48"><path d="M512 977.454545C255.301818 977.454545 46.545455 768.651636 46.545455 512S255.301818 46.545455 512 46.545455s465.454545 208.802909 465.454545 465.454545-208.802909 465.454545-465.454545 465.454545z m0-861.090909c-218.158545 0-395.636364 177.477818-395.636364 395.636364 0 218.158545 177.477818 395.636364 395.636364 395.636364s395.636364-177.477818 395.636364-395.636364c0-218.158545-177.477818-395.636364-395.636364-395.636364zM414.999273 673.000727V351.045818a34.909091 34.909091 0 0 0-69.818182 0v321.954909a34.909091 34.909091 0 0 0 69.818182 0z m263.773091 0V351.045818a34.909091 34.909091 0 0 0-69.818182 0v321.954909a34.909091 34.909091 0 0 0 69.818182 0z" fill="#dd6572" p-id="7423"></path></svg>