<?xml version="1.0" standalone="no"?><!DOCTYPE svg PUBLIC "-//W3C//DTD SVG 1.1//EN" "http://www.w3.org/Graphics/SVG/1.1/DTD/svg11.dtd"><svg t="1590654314049" class="icon" viewBox="0 0 1024 1024" version="1.1" xmlns="http://www.w3.org/2000/svg" p-id="11480" xmlns:xlink="http://www.w3.org/1999/xlink" width="64" height="64"><defs><style type="text/css"></style></defs><path d="M723.422886 514.547264c0 10.189055-5.094527 15.283582-10.189055 20.378109l-285.293532 178.308458c-5.094527 5.094527-10.189055 5.094527-15.283583 5.094527-15.283582 0-25.472637-10.189055-25.472636-25.472637v-361.711442c0-15.283582 10.189055-25.472637 25.472636-25.472637 5.094527 0 10.189055 0 15.283583 5.094527l285.293532 178.308458c5.094527 10.189055 10.189055 20.378109 10.189055 25.472637m295.482587 0c0-280.199005-229.253731-509.452736-509.452737-509.452737s-509.452736 229.253731-509.452736 509.452737 229.253731 509.452736 509.452736 509.452736 509.452736-229.253731 509.452737-509.452736z m-66.228856 0c0 244.537313-198.686567 448.318408-448.318408 448.318408s-448.318408-198.686567-448.318408-448.318408 198.686567-448.318408 448.318408-448.318408 448.318408 203.781095 448.318408 448.318408z" p-id="11481" fill="#f4ea2a"></path></svg>