<?xml version="1.0" standalone="no"?><!DOCTYPE svg PUBLIC "-//W3C//DTD SVG 1.1//EN" "http://www.w3.org/Graphics/SVG/1.1/DTD/svg11.dtd"><svg t="1735735217472" class="icon" viewBox="0 0 1024 1024" version="1.1" xmlns="http://www.w3.org/2000/svg" p-id="4539" xmlns:xlink="http://www.w3.org/1999/xlink" width="200" height="200"><path d="M848.28125 93.875H177.125c-22.21875 0-43.59375 8.8125-59.34375 24.5625s-24.5625 37.03125-24.5625 59.34375v503.4375c0 46.3125 37.59375 83.90625 83.90625 83.90625h671.15625c46.3125 0 83.90625-37.59375 83.90625-83.90625v-503.4375c0-46.40625-37.59375-83.90625-83.90625-83.90625z m28.5 587.25c0 15.375-12.375 27.84375-27.65625 28.125H177.96875c-7.59375 0.1875-15-2.625-20.4375-7.96875-5.4375-5.34375-8.53125-12.5625-8.53125-20.15625v-503.4375c0-7.5 3-14.625 8.25-19.875 5.25-5.25 12.375-8.25 19.875-8.25h671.15625c7.5-0.09375 14.8125 2.8125 20.15625 8.0625 5.34375 5.25 8.34375 12.46875 8.34375 20.0625v503.4375zM680.46875 878.28125h-335.625c-14.0625 1.6875-24.65625 13.6875-24.65625 27.9375 0 14.15625 10.59375 26.15625 24.65625 27.9375h335.625c10.78125 1.3125 21.375-3.65625 27.1875-12.84375 5.8125-9.1875 5.8125-20.90625 0-30.09375s-16.40625-14.25-27.1875-12.9375z m0 0" fill="#ffffff" p-id="4540"></path><path d="M633.875 429.40625h100.3125c7.5 0.09375 14.625-2.71875 19.96875-7.96875 5.34375-5.15625 8.4375-12.28125 8.53125-19.78125 0.1875-7.40625-2.53125-14.625-7.6875-19.96875-5.15625-5.34375-12.1875-8.4375-19.59375-8.53125h-167.8125c-3.65625 0-7.21875 0.84375-10.5 2.53125-6.84375 1.21875-12.75 5.53125-15.9375 11.71875-1.3125 3.46875-2.0625 7.21875-2.0625 10.875v167.8125c1.6875 14.0625 13.6875 24.65625 27.9375 24.65625 14.15625 0 26.15625-10.59375 27.9375-24.65625V468.5l150.1875 149.71875c6.9375 7.40625 17.4375 10.40625 27.28125 7.875 9.84375-2.53125 17.53125-10.21875 20.0625-20.0625 2.53125-9.84375-0.46875-20.34375-7.875-27.28125L633.875 429.40625z m0 0" fill="#ffffff" p-id="4541"></path></svg>