<?xml version="1.0" standalone="no"?><!DOCTYPE svg PUBLIC "-//W3C//DTD SVG 1.1//EN" "http://www.w3.org/Graphics/SVG/1.1/DTD/svg11.dtd"><svg t="1735735203605" class="icon" viewBox="0 0 1024 1024" version="1.1" xmlns="http://www.w3.org/2000/svg" p-id="4382" xmlns:xlink="http://www.w3.org/1999/xlink" width="200" height="200"><path d="M863.5625 244.8125H438.059375l-44.26875-82.771875A56.19375 56.19375 0 0 0 344.178125 132.3125H160.4375c-31.021875 0-56.25 25.228125-56.25 56.25v646.875c0 31.021875 25.228125 56.25 56.25 56.25h703.125c31.021875 0 56.25-25.228125 56.25-56.25v-534.375c0-31.021875-25.228125-56.25-56.25-56.25z m-703.125-56.25h183.740625l60.159375 112.5H863.5625v86.11875c-0.365625 0-0.703125-0.1125-1.06875-0.1125H161.534375c-0.365625 0-0.703125 0.1125-1.096875 0.1125V188.5625z m0 646.875v-84.375l1.096875-307.74375 702.028125 1.06875V751.0625h0.05625v84.375H160.4375z" fill="#ffffff" p-id="4383"></path></svg>