<?xml version="1.0" standalone="no"?><!DOCTYPE svg PUBLIC "-//W3C//DTD SVG 1.1//EN" "http://www.w3.org/Graphics/SVG/1.1/DTD/svg11.dtd"><svg t="1735735184935" class="icon" viewBox="0 0 1024 1024" version="1.1" xmlns="http://www.w3.org/2000/svg" p-id="4228" xmlns:xlink="http://www.w3.org/1999/xlink" width="200" height="200"><path d="M158.4874888 158.4874888v707.0250224h707.0250224V158.4874888z m0-58.96621828h707.0250224a58.97916365 58.97916365 0 0 1 58.96621828 58.96621828v707.0250224a58.97916365 58.97916365 0 0 1-58.96621828 58.96621828H158.4874888a58.97916365 58.97916365 0 0 1-58.96621828-58.96621828V158.4874888a58.97916365 58.97916365 0 0 1 58.96621828-58.96621828z m0 0" fill="#ffffff" p-id="4229"></path><path d="M158.4874888 276.31636227h707.0250224v58.9532729H158.4874888zM636.02971181 626.69609086l-199.26827616 99.57588386a29.5025272 29.5025272 0 0 1-39.56108957-13.15250885A29.98150637 29.98150637 0 0 1 394.19701728 699.96695703V500.71162627a29.5025272 29.5025272 0 0 1 42.62914529-26.40858074l199.26827615 99.67944692A29.45074569 29.45074569 0 0 1 649.2210568 613.54358203a29.77438025 29.77438025 0 0 1-13.13956347 13.15250883z m-65.11527506-26.40858073l-117.80298272-58.96621828v117.80298272zM276.30341689 158.4874888h58.96621828l59.27690744 117.8029827h-58.95327288z m176.6785833 0H512l59.27690747 117.8029827h-59.00505444z m176.78214638 0h58.96621826l59.27690747 117.8029827h-58.95327289z m0 0" fill="#ffffff" p-id="4230"></path></svg>