<?xml version="1.0" standalone="no"?><!DOCTYPE svg PUBLIC "-//W3C//DTD SVG 1.1//EN" "http://www.w3.org/Graphics/SVG/1.1/DTD/svg11.dtd"><svg t="1737868831126" class="icon" viewBox="0 0 1025 1024" version="1.1" xmlns="http://www.w3.org/2000/svg" p-id="5060" xmlns:xlink="http://www.w3.org/1999/xlink" width="48.046875" height="48"><path d="M511.488 991.52c85.774 0 166.315-22.488 236.01-61.847C893.222 847.355 991.596 691.143 991.596 512.01099999l0 0.00100001c0-264.881-214.939-479.555-480.108-479.532-265.17 0-480.107 214.67500001-480.08400001 479.556C31.404 776.846 246.367 991.52 511.488 991.52zM511.488 92.404c232.027 0 420.087 187.868 420.11 419.582 0 231.715-188.083 419.55800001-420.11 419.558-232.002 0-420.06199999-187.844-420.06200001-419.558C91.426 280.247 279.51 92.404 511.488 92.404z" fill="#317EE6" p-id="5061"></path><path d="M355.51 493.99L478.707 360.505 478.70699999 750.234c0 18.725 13.824 32.475 32.50000001 32.475 18.7 0 32.52400001-13.727 32.52399999-32.475l1e-8-389.705L664.49 494.624c22.479 22.43 60.782-15.82299999 38.32700001-38.278l-191.61000001-193.243-191.586 193.243C296.898 479.094 333.933 515.592 355.51 493.99z" fill="#317EE6" p-id="5062"></path></svg>