<?xml version="1.0" standalone="no"?><!DOCTYPE svg PUBLIC "-//W3C//DTD SVG 1.1//EN" "http://www.w3.org/Graphics/SVG/1.1/DTD/svg11.dtd"><svg t="1737868542734" class="icon" viewBox="0 0 1024 1024" version="1.1" xmlns="http://www.w3.org/2000/svg" p-id="9456" xmlns:xlink="http://www.w3.org/1999/xlink" width="48" height="48"><path d="M509.2 129.9c209.6-1.3 381.2 168.2 382.5 377.8S723.6 888.8 514 890.1 132.8 722 131.5 512.4s168.1-381.2 377.7-382.5m-0.4-66.1c-246.4 1.5-444.9 202.5-443.4 449s202.5 444.9 449 443.4c246.4-1.5 444.9-202.5 443.4-449S755.3 62.3 508.8 63.8z" fill="#efb336" p-id="9457"></path><path d="M485.2 234.4c-16.1 0.1-29.1 13.3-29 29.4l1.8 285.7c0.1 16.1 13.3 29.1 29.4 29l285.7-1.8c16.1-0.1 29.1-13.3 29-29.4-0.1-16.1-13.3-29.1-29.4-29l-256.5 1.6-1.6-256.5c-0.1-16.1-13.4-29.1-29.4-29z" fill="#efb336" p-id="9458"></path></svg>