<?xml version="1.0" standalone="no"?><!DOCTYPE svg PUBLIC "-//W3C//DTD SVG 1.1//EN" "http://www.w3.org/Graphics/SVG/1.1/DTD/svg11.dtd"><svg t="1711211764847" class="icon" viewBox="0 0 1024 1024" version="1.1" xmlns="http://www.w3.org/2000/svg" p-id="4607" width="64" height="64" xmlns:xlink="http://www.w3.org/1999/xlink"><path d="M904 848h56v56h-56zM848 120H624c-61.86 0-112 50.15-112 112H176c-61.86 0-112 50.15-112 112v336c0.18 61.77 50.22 111.81 112 112h336v56H316c-15.46 0-28 12.52-28 28s12.54 28 28 28h392c15.46 0 28-12.52 28-28s-12.54-28-28-28H568v-56h280c61.78-0.19 111.82-50.23 112-112V232c0-61.85-50.14-112-112-112z m56 560c0 30.93-25.07 56-56 56H176c-30.93 0-56-25.07-56-56v-56h784v56z m0-336v224H120V344c0-30.93 25.07-56 56-56h392v-56c0-30.93 25.07-56 56-56h224c30.93 0 56 25.07 56 56v112z" fill="#957AF7" p-id="4608"></path><path d="M176 848h56v56h-56zM792 848h56v56h-56zM64 848h56v56H64z" fill="#957AF7" p-id="4609"></path></svg>